<?xml version="1.0" encoding="UTF-8"?>
<!-- Generated by Pixelmator Pro 3.6.9 -->
<svg width="849" height="969" viewBox="0 0 849 969" xmlns="http://www.w3.org/2000/svg">
    <g id="Vector-version-website-blue">
        <path id="Path" fill="#fbf9ef" fill-rule="evenodd" stroke="none" d="M 420 0 L 0 237 L 0 735 L 432 969 L 849 726 L 849 237 L 420 0 Z"/>
        <g id="g1">
            <path id="path1" fill="#1d70b8" fill-rule="evenodd" stroke="none" d="M 72 282 L 420 87 L 774 282 L 777 681 L 432 885 L 72 684 L 72 282 Z"/>
            <path id="path2" fill="#17212b" fill-rule="evenodd" stroke="none" d="M 50.002544 242.742996 L 27 255.632355 L 27 710.414001 L 50.062717 723.290649 L 410.062714 924.290649 L 432.643127 936.898071 L 454.904175 923.734985 L 799.904175 719.734985 L 822.19342 706.555237 L 821.998718 680.661682 L 818.998718 281.661652 L 818.800537 255.302673 L 795.711975 242.584396 L 441.711975 47.584396 L 419.813202 35.521511 L 398.002533 47.743 L 50.002544 242.742996 Z M 420 87 L 72 282 L 72 684 L 432 885 L 777 681 L 774 282 L 420 87 Z"/>
        </g>
        <g id="g2">
            <path id="path3" fill="#f7f7f1" fill-rule="evenodd" stroke="none" d="M 324 526.720337 L 246.696014 575.025269 C 246.696014 575.025269 220.718643 549.290161 189.456757 568.341919 C 171.312485 579.399414 155.854065 606.029053 174.186584 634.484314 C 187.633453 655.356323 218.209015 661.398438 241.283386 645.620605 C 266.033844 628.696655 256.234558 590.290161 256.234558 590.290161 L 332.740234 542.48407 L 417 595.352905 L 417 684 C 417 684 381.409515 692.392578 381 729 C 380.762329 750.246826 395.153778 777.467834 429 777 C 453.826202 776.65686 475.152802 753.929199 474 726 C 472.763428 696.042114 435 684 435 684 L 435 595.088257 L 518.034424 540.546021 L 595.216064 585.106873 C 595.216064 585.106873 584.689026 620.125427 616.187256 638.783813 C 634.468689 649.613037 665.238525 650.760193 681.75647 621.2146 C 693.872375 599.542847 684.852966 569.709717 660.089172 556.743408 C 633.526611 542.835388 604.216064 569.518433 604.216064 569.518433 L 528 525.515015 L 528 436.623596 L 603.642517 388.19043 C 603.642517 388.19043 629.901733 413.637817 660.951904 394.242981 C 678.973267 382.986267 694.137451 356.188049 675.492676 327.93634 C 661.816772 307.213745 631.176514 301.508728 608.277283 317.539734 C 583.714722 334.735229 593.936462 373.031494 593.936462 373.031494 L 519.714417 420.555176 L 433 363.571411 L 433 273 C 433 273 468.590485 264.607422 469 228 C 469.237671 206.753174 454.846222 179.532166 421 180 C 396.173798 180.34314 374.847198 203.070801 376 231 C 377.236572 260.957886 415 273 415 273 L 415 362.575745 L 331.50058 420.772339 L 259.05545 372.268188 C 259.05545 372.268188 271.882263 338.025085 241.691116 317.31842 C 224.168259 305.300293 193.542328 302.114624 175.100876 330.499451 C 161.574051 351.319702 168.594681 381.685547 192.443802 396.265869 C 218.025284 411.905273 249.041229 387.225342 249.041229 387.225342 L 324 437.412354 L 324 526.720337 Z"/>
            <path id="path4" fill="#17212b" fill-rule="evenodd" stroke="none" d="M 279 461.438385 L 279 501.776428 L 245.861557 522.483643 C 238.078415 519.471558 229.771072 517.437561 220.935577 516.657166 C 202.301376 515.01123 183.468491 519.293274 166.038712 529.915405 C 147.480667 541.225098 132.511887 559.344482 125.425209 580.739685 C 116.934837 606.372803 120.457962 634.176758 136.357666 658.855896 C 164.053604 701.845093 223.49353 712.299255 266.683319 682.766846 C 284.883118 670.322144 295.787872 652.360962 300.480988 631.976257 C 301.867096 625.955566 302.676086 619.996582 303.01059 614.124268 L 332.69104 595.577881 L 372 620.242249 L 372 656.887146 L 371.958923 656.91803 C 350.264832 673.225647 336.347076 697.721313 336.002808 728.496643 C 335.759735 750.228088 343.193573 772.524109 357.582397 789.871643 C 374.821259 810.655396 400.267303 822.401428 429.621948 821.995728 C 480.755524 821.28894 521.119507 776.420959 518.961731 724.144165 C 518.314697 708.469055 513.219482 694.101868 504.713715 681.664307 C 498.178345 672.10791 490.022888 664.191711 480.732819 657.532288 C 480.488831 657.357422 480.244568 657.183716 480 657.01123 L 480 619.369202 L 519.556274 593.386169 L 549.132935 610.46228 C 550.121704 618.574829 552.222656 626.831421 555.719238 635.124817 C 563.004639 652.40448 575.644958 667.070679 593.252747 677.500854 C 611.951172 688.577087 634.97699 693.28717 657.194824 689.499878 C 683.813477 684.962463 706.708923 668.798584 721.034851 643.173828 C 745.989502 598.537354 727.314758 541.147339 680.962891 516.877563 C 675.912354 514.233093 670.659729 512.160217 665.261597 510.660828 C 650.845703 506.656616 636.303162 506.902039 622.195374 510.379761 C 615.617859 512.00116 609.344177 514.266174 603.335999 517.048828 L 573 499.534271 L 573 461.244507 L 605.054993 440.720001 C 612.800171 443.619507 621.05304 445.553589 629.815796 446.253326 C 648.537964 447.748352 667.40564 443.269104 684.791687 432.409271 C 703.224182 420.895752 717.992432 402.612671 724.843018 381.140686 C 733.050537 355.415649 729.221436 327.652222 713.050903 303.149689 C 684.883179 260.468109 625.331726 250.669235 582.469788 280.675476 C 564.560791 293.213013 553.871826 311.113037 549.338745 331.360046 C 547.952454 337.551971 547.176636 343.678406 546.900574 349.714081 L 520.032532 366.91748 L 478 339.296112 L 478 300.112823 L 478.041077 300.08197 C 499.735168 283.774353 513.652893 259.278717 513.997192 228.503372 C 514.240295 206.771912 506.806427 184.475922 492.417603 167.128326 C 475.178741 146.34462 449.732697 134.598541 420.378052 135.004303 C 369.244476 135.711044 328.880524 180.579041 331.038269 232.855835 C 331.685303 248.53096 336.780518 262.898102 345.286285 275.335724 C 351.821655 284.892059 359.977112 292.808319 369.267181 299.467712 C 369.511169 299.642609 369.755432 299.816284 370 299.98877 L 370 339.087982 L 330.990845 366.276184 L 306.621429 349.960175 C 306.073639 339.750946 303.909302 329.571747 299.757477 319.677917 C 293.21936 304.097565 282.24649 290.566528 267.143372 280.208008 C 249.220901 267.915802 226.558197 261.68866 204.138016 263.993805 C 177.277008 266.755554 153.359802 281.365082 137.365631 305.983093 C 109.504967 348.865753 124.331757 407.368439 168.97168 434.659363 C 177.316254 439.760864 186.306442 443.189972 195.651337 444.982239 C 208.126526 447.374847 220.536011 446.774384 232.66098 443.907013 C 237.397202 442.786987 241.985306 441.347229 246.436996 439.636536 L 279 461.438385 Z M 246.696014 575.025269 L 324 526.720337 L 324 437.412354 L 249.041229 387.225342 C 249.041229 387.225342 218.025284 411.905273 192.443802 396.265869 C 168.594681 381.685547 161.574051 351.319702 175.100876 330.499451 C 193.542328 302.114624 224.168259 305.300293 241.691116 317.31842 C 271.882263 338.025085 259.05545 372.268188 259.05545 372.268188 L 331.50058 420.772339 L 415 362.575745 L 415 273 C 415 273 377.236572 260.957886 376 231 C 374.847198 203.070801 396.173798 180.34314 421 180 C 454.846222 179.532166 469.237671 206.753174 469 228 C 468.590485 264.607422 433 273 433 273 L 433 363.571411 L 519.714417 420.555176 L 593.936462 373.031494 C 593.936462 373.031494 583.714722 334.735229 608.277283 317.539734 C 631.176514 301.508728 661.816772 307.213745 675.492676 327.93634 C 694.137451 356.188049 678.973267 382.986267 660.951904 394.242981 C 629.901733 413.637817 603.642517 388.19043 603.642517 388.19043 L 528 436.623596 L 528 525.515015 L 604.216064 569.518433 C 604.216064 569.518433 633.526611 542.835388 660.089172 556.743408 C 684.852966 569.709717 693.872375 599.542847 681.75647 621.2146 C 665.238525 650.760193 634.468689 649.613037 616.187256 638.783813 C 584.689026 620.125427 595.216064 585.106873 595.216064 585.106873 L 518.034424 540.546021 L 435 595.088257 L 435 684 C 435 684 472.763428 696.042114 474 726 C 475.152802 753.929199 453.826202 776.65686 429 777 C 395.153778 777.467834 380.762329 750.246826 381 729 C 381.409515 692.392578 417 684 417 684 L 417 595.352905 L 332.740234 542.48407 L 256.234558 590.290161 C 256.234558 590.290161 266.033844 628.696655 241.283386 645.620605 C 218.209015 661.398438 187.633453 655.356323 174.186584 634.484314 C 155.854065 606.029053 171.312485 579.399414 189.456757 568.341919 C 220.718643 549.290161 246.696014 575.025269 246.696014 575.025269 Z"/>
        </g>
        <path id="path5" fill="#162134" fill-rule="evenodd" stroke="none" d="M 424 405 L 363 443 L 363 512 L 425 551 L 484 513 L 484 445 L 424 405 Z"/>
        <path id="Shape" fill="#1d70b8" fill-rule="evenodd" stroke="none" d="M 452 478.999512 C 451.999725 462.983276 439.015778 449.999756 422.999512 450 C 406.983276 450.000244 393.999725 462.984222 394 479.000488 C 394.000275 495.016724 406.984222 508.000275 423.000488 508 C 439.016724 507.999725 452.000275 495.015778 452 478.999512 Z"/>
    </g>
</svg>
